{"title":"Grown Ups 2 2013 BRRip 480p x264 AAC - VYTO [P2PDL]","uid":9066002,"size":373630676,"categoryP":"video","categoryS":"movies","magnet":"?xt=urn:btih:7f6c69a3798cb7f00e0b3b734ca51932ae76824f&amp;dn=Grown+Ups+2+2013+BRRip+480p+x264+AAC+-+VYTO+%5BP2PDL%5D&amp;tr=udp%3A%2F%2Ftracker.openbittorrent.com%3A80&amp;tr=udp%3A%2F%2Fopen.demonii.com%3A1337&amp;tr=udp%3A%2F%2Ftracker.coppersurfer.tk%3A6969&amp;tr=udp%3A%2F%2Fexodus.desync.com%3A6969","seeders":4,"leechers":2,"uploader":"Vitamin_X","files":-1,"time":1382112330,"description":"_______ Visit us at our Semi Public Bittorrent Community ________\n  &lt;a href=&quot;\nhttp://p2pdl.com&quot; rel=&quot;nofollow&quot; target=&quot;_NEW&quot;&gt;\nhttp://p2pdl.com&lt;/a&gt;  _____________________________ &lt;a href=&quot; http://p2pdl.com&quot; rel=&quot;nofollow&quot; target=&quot;_NEW&quot;&gt; http://p2pdl.com&lt;/a&gt;\n\n\nGrown Ups 2 2013 BRRip 480p x264 AAC - VYTO\n\n\nGenre: Comedy\nPlot: After moving his family back to his \nhometown to be with his friends and their \nkids, Lenny finds out that between old bullies, \nnew bullies, schizo bus drivers, drunk cops \non skis, and 400 costumed party crashers \nsometimes crazy follows you.\nDirector: Dennis Dugan\nStars: Adam Sandler, Kevin James, Chris Rock\nRated: Rated PG-13 for crude and suggestive \ncontent, language and some male rear nudity\n\nIMDb: &lt;a href=&quot;\nhttp://www.imdb.com/title/tt2191701/&quot; rel=&quot;nofollow&quot; target=&quot;_NEW&quot;&gt;\nhttp://www.imdb.com/title/tt2191701/&lt;/a&gt;\n\n\nGeneral\nFormat                         : MPEG-4\nFile size                      : 352 MiB\nDuration                       : 1h 40mn\nOverall bit rate mode          : Variable\nOverall bit rate               : 487 Kbps\n\nVideo\nFormat                         : AVC\nBit rate                       : 444 Kbps\nWidth                          : 720 pixels\nHeight                         : 384 pixels\nDisplay aspect ratio           : 1.85:1\nFrame rate mode                : Constant\nFrame rate                     : 23.976 fps\nBit depth                      : 10 bits\nStream size                    : 320 MiB (91%)\nWriting library                : x264 core 138 r2358 9e941d1\n\nAudio\nFormat                         : AAC\nBit rate                       : 40.0 Kbps\nChannel(s)                     : 2 channels\nChannel positions              : Front: L R\nSampling rate                  : 48.0 KHz / 24.0 KHz\nStream size                    : 28.9 MiB (8%)\nLanguage                       : English\n\nSubtitle                       : Yes (English)\n\nSource                         : 720p.BluRay.x264-SPARKS\n\nScreenshots:\n &lt;a href=&quot;\nhttp://ultraimg.com/images/Gi2q.png&quot; rel=&quot;nofollow&quot; target=&quot;_NEW&quot;&gt;\nhttp://ultraimg.com/images/Gi2q.png&lt;/a&gt; &lt;a href=&quot;\nhttp://ultraimg.com/images/ncENl.png&quot; rel=&quot;nofollow&quot; target=&quot;_NEW&quot;&gt;\nhttp://ultraimg.com/images/ncENl.png&lt;/a&gt; &lt;a href=&quot;\nhttp://ultraimg.com/images/R0u1.png&quot; rel=&quot;nofollow&quot; target=&quot;_NEW&quot;&gt;\nhttp://ultraimg.com/images/R0u1.png&lt;/a&gt; &lt;a href=&quot;\nhttp://ultraimg.com/images/uvHJe.png&quot; rel=&quot;nofollow&quot; target=&quot;_NEW&quot;&gt;\nhttp://ultraimg.com/images/uvHJe.png&lt;/a&gt; &lt;a href=&quot;\nhttp://ultraimg.com/images/LIE1m.png&quot; rel=&quot;nofollow&quot; target=&quot;_NEW&quot;&gt;\nhttp://ultraimg.com/images/LIE1m.png&lt;/a&gt; &lt;a href=&quot;\nhttp://ultraimg.com/images/0DAGe.png&quot; rel=&quot;nofollow&quot; target=&quot;_NEW&quot;&gt;\nhttp://ultraimg.com/images/0DAGe.png&lt;/a&gt; &lt;a href=&quot;\nhttp://ultraimg.com/images/0NS8.png&quot; rel=&quot;nofollow&quot; target=&quot;_NEW&quot;&gt;\nhttp://ultraimg.com/images/0NS8.png&lt;/a&gt;\n\n----------------------------------------------------------------------------------------------------\n\n\nEncoded using revolutionary 10bit encoding, which enables us to provide you more crispier \nand sharper images at small sizes, just make sure you follow our instructions without a fault.\nRecommend to you to use latest version of VLC player. Install K-Lite Codec Pack or shark007 codecs\nin case of any kind of problem in playback (For non-VLC Media Player users). Alternatively, install\nCore AVC codecs, the fastest decoder that there is coupled with Community Center Codec Pack and play\non Windows Media Player Classic. Check sample to be sure.\nEnjoy!\n\nEncoder Notes:Looking For Early Access To Anything You Can Provide DVDScr, R5, DVDR, BluRay, Direct\nAudio, Music Releases and Seedboxes. We require dedicated servers, so as to do more \nand fast releases of movies.\nIf You Got anything to offer please contact us at &quot;&lt;a class=&quot;__cf_email__&quot; href=&quot;/cdn-cgi/l/email-protection&quot; data-cfemail=&quot;a2d2d0c5e2cad7d1ca8cc1cdcf&quot;&gt;[email&amp;#160;protected]&lt;/a&gt;&lt;script cf-hash='f9e31' type=&quot;text/javascript&quot;&gt;\n/* &lt;![CDATA[ */!function(){try{var t=&quot;currentScript&quot;in document?document.currentScript:function(){for(var t=document.getElementsByTagName(&quot;script&quot;),e=t.length;e--;)if(t[e].getAttribute(&quot;cf-hash&quot;))return t[e]}();if(t&amp;&amp;t.previousSibling){var e,r,n,i,c=t.previousSibling,a=c.getAttribute(&quot;data-cfemail&quot;);if(a){for(e=&quot;&quot;,r=parseInt(a.substr(0,2),16),n=2;a.length-n;n+=2)i=parseInt(a.substr(n,2),16)^r,e+=String.fromCharCode(i);e=document.createTextNode(e),c.parentNode.replaceChild(e,c)}}}catch(u){}}();/* ]]&gt; */&lt;/script&gt;&quot;.\n\nFacebook Fan Page:  \nSearch P2PDL on FB and hit like!!!\n\n\nFor more of our team uploads visit @                                             &lt;a href=&quot; http://thepiratebay.se/user/varuttee&quot; rel=&quot;nofollow&quot; target=&quot;_NEW&quot;&gt; http://thepiratebay.se/user/varuttee&lt;/a&gt;\t","torrent":{"xt":"urn:btih:7f6c69a3798cb7f00e0b3b734ca51932ae76824f","amp;dn":"Grown+Ups+2+2013+BRRip+480p+x264+AAC+-+VYTO+%5BP2PDL%5D","amp;tr":["udp%3A%2F%2Ftracker.openbittorrent.com%3A80","udp%3A%2F%2Fopen.demonii.com%3A1337","udp%3A%2F%2Ftracker.coppersurfer.tk%3A6969","udp%3A%2F%2Fexodus.desync.com%3A6969"],"infoHash":"7f6c69a3798cb7f00e0b3b734ca51932ae76824f","infoHashBuffer":{"type":"Buffer","data":[127,108,105,163,121,140,183,240,14,11,59,115,76,165,25,50,174,118,130,79]},"announce":[],"urlList":[]}}